<?xml version="1.0" standalone="no"?>
<!DOCTYPE svg PUBLIC "-//W3C//DTD SVG 20010904//EN"
 "http://www.w3.org/TR/2001/REC-SVG-20010904/DTD/svg10.dtd">
<svg version="1.0" xmlns="http://www.w3.org/2000/svg"
 width="240.000000pt" height="240.000000pt" viewBox="0 0 240.000000 240.000000"
 preserveAspectRatio="xMidYMid meet">
<metadata>
Created by potrace 1.14, written by Peter Selinger 2001-2017
</metadata>
<g transform="translate(0.000000,240.000000) scale(0.100000,-0.100000)"
fill="#000000" stroke="none">
<path d="M1050 1992 c-72 -12 -136 -34 -167 -58 -96 -73 -176 -176 -195 -251
l-10 -43 -194 0 -194 0 -1 -47 c-1 -27 -3 -57 -4 -68 -2 -21 -13 -215 -21
-380 -2 -55 -6 -122 -9 -150 -2 -27 -7 -132 -11 -233 -7 -204 -2 -232 49 -259
17 -8 49 -16 71 -16 39 -1 42 -3 63 -46 42 -88 82 -96 318 -62 215 31 404 58
473 67 83 11 109 14 132 19 14 2 43 7 65 11 22 4 135 8 250 9 116 2 220 4 232
4 13 1 40 16 61 35 29 27 49 35 90 40 71 7 117 31 143 73 18 29 21 44 16 101
-3 37 -8 80 -12 97 -3 16 -13 61 -21 100 -8 38 -17 86 -20 105 -3 19 -12 67
-20 105 -9 39 -24 115 -34 170 -22 118 -22 118 -60 312 -17 83 -30 154 -30
158 0 3 -3 4 -7 2 -5 -3 -33 -8 -63 -12 -30 -3 -66 -8 -80 -10 -88 -13 -118
-18 -140 -20 -62 -7 -195 -27 -201 -30 -3 -3 -12 14 -20 37 -41 124 -304 265
-449 240z"/>
</g>
</svg>
